<?xml version="1.0" standalone="no"?>
<!DOCTYPE svg PUBLIC "-//W3C//DTD SVG 20010904//EN"
 "http://www.w3.org/TR/2001/REC-SVG-20010904/DTD/svg10.dtd">
<svg version="1.0" xmlns="http://www.w3.org/2000/svg"
 width="736.000000pt" height="736.000000pt" viewBox="0 0 736.000000 736.000000"
 preserveAspectRatio="xMidYMid meet">

<g transform="translate(0.000000,736.000000) scale(0.100000,-0.100000)"
fill="#000000" stroke="none">
<path d="M2624 4966 c-18 -14 -19 -30 -18 -403 0 -353 2 -397 21 -483 88 -408
384 -716 788 -821 77 -20 113 -23 255 -23 145 1 177 4 262 27 382 102 679 400
769 772 24 102 24 143 -1 50 -69 -266 -244 -454 -520 -563 -163 -64 -333 -84
-493 -58 -297 49 -551 215 -666 435 -93 178 -115 327 -113 736 1 249 -2 304
-14 323 -14 21 -21 22 -132 22 -86 0 -123 -4 -138 -14z"/>
<path d="M4426 4948 c-3 -13 -7 -205 -10 -428 -3 -321 -7 -419 -20 -473 -16
-73 -57 -170 -82 -199 -9 -9 -13 -22 -8 -29 4 -7 3 -10 -3 -6 -14 9 -37 -19
-27 -34 4 -7 3 -9 -3 -6 -9 5 -54 -36 -50 -45 1 -1 0 -2 -2 -1 -9 6 -30 -20
-24 -30 3 -6 1 -7 -5 -3 -7 4 -12 2 -12 -4 0 -6 -4 -9 -9 -6 -5 4 -11 2 -13
-3 -4 -10 -138 -101 -150 -101 -5 0 -7 -4 -3 -9 3 -5 0 -13 -6 -17 -8 -5 -9
-3 -4 6 6 10 4 11 -11 5 -10 -4 -50 -19 -89 -32 -38 -14 -72 -27 -74 -29 -8
-8 111 7 185 22 89 18 167 48 157 59 -5 4 -3 5 4 1 26 -14 168 67 250 144 61
57 132 145 172 214 26 46 73 178 70 198 -1 7 1 20 4 28 18 41 26 173 26 454 0
171 -4 317 -9 327 -8 14 -27 17 -130 18 -117 2 -120 1 -124 -21z"/>
<path d="M3590 4953 c-267 -41 -494 -247 -554 -503 -20 -84 -20 -239 -1 -315
54 -210 212 -389 412 -466 175 -68 365 -57 543 29 57 28 96 57 160 122 47 47
93 100 104 118 18 33 16 32 -45 -18 -134 -107 -250 -145 -434 -138 -180 7
-297 54 -423 172 -141 132 -211 366 -167 562 55 248 218 392 485 429 l95 13
-75 -1 c-41 0 -86 -1 -100 -4z"/>
<path d="M3797 4933 c7 -5 -18 -7 -56 -5 -42 3 -92 -2 -132 -12 -77 -20 -171
-64 -164 -77 4 -5 0 -6 -8 -4 -21 9 -128 -103 -164 -170 -27 -51 -64 -164 -63
-191 1 -5 10 8 20 30 11 21 17 43 13 49 -3 6 -1 7 5 3 13 -8 31 23 25 44 -4
12 -2 12 5 2 7 -10 11 -10 21 2 7 8 9 21 5 27 -4 8 -3 9 4 5 6 -4 20 1 30 11
46 44 79 67 134 93 32 15 53 30 46 33 -7 3 3 5 22 5 19 0 78 3 130 7 87 7 102
5 174 -19 79 -27 142 -69 200 -134 l29 -33 98 2 c55 1 99 3 99 6 0 10 -24 49
-44 71 -68 76 -168 171 -152 145 5 -9 2 -11 -8 -7 -9 3 -14 10 -11 15 6 8 -34
35 -47 31 -5 -1 -8 2 -8 7 0 12 -57 34 -69 27 -5 -4 -13 -1 -17 5 -5 8 -3 9 6
4 8 -5 11 -4 7 2 -7 11 -45 21 -107 29 -20 3 -30 2 -23 -3z m-307 -83 c0 -5
-5 -10 -11 -10 -5 0 -7 5 -4 10 3 6 8 10 11 10 2 0 4 -4 4 -10z m-20 -34 c0
-2 -7 -7 -16 -10 -8 -3 -12 -2 -9 4 6 10 25 14 25 6z"/>
<path d="M3613 4581 c-91 -31 -163 -105 -194 -199 -18 -54 -6 -158 24 -218
103 -203 393 -217 516 -25 35 54 55 138 45 194 -5 34 -24 53 -24 25 0 -7 -16
-31 -36 -52 -61 -67 -161 -76 -250 -22 -73 44 -104 185 -56 254 12 16 19 32
16 35 -4 3 7 9 22 12 47 11 51 13 19 14 -16 0 -53 -8 -82 -18z"/>
<path d="M4060 3963 c-24 -32 -64 -76 -89 -97 -44 -37 -45 -39 -16 -32 93 23
262 113 308 164 18 19 16 20 -71 21 l-89 2 -43 -58z"/>
<path d="M2244 3149 c-12 -13 -19 -35 -19 -61 0 -99 145 -107 161 -8 9 53 -24
90 -80 90 -31 0 -48 -6 -62 -21z"/>
<path d="M1040 2853 c0 -271 4 -328 20 -318 5 3 6 -3 3 -14 -7 -28 50 -87 105
-106 102 -36 389 -28 419 12 10 13 10 18 0 25 -9 6 -9 8 1 8 9 0 12 74 12 335
l0 335 -80 0 -80 0 0 -310 0 -309 -35 -7 c-79 -14 -163 16 -192 69 -16 28 -18
66 -21 295 l-3 262 -75 0 -74 0 0 -277z"/>
<path d="M2725 3111 c-195 -52 -299 -246 -251 -470 39 -185 167 -271 381 -258
93 6 183 30 191 52 3 6 -4 34 -15 61 -21 53 -24 54 -96 35 -96 -25 -212 -5
-257 45 -69 78 -69 270 0 348 48 53 172 72 266 40 27 -9 51 -13 55 -8 13 14
41 106 36 114 -20 32 -238 61 -310 41z"/>
<path d="M3220 2931 c-67 -24 -131 -89 -154 -158 -35 -103 -10 -258 52 -315
60 -57 109 -73 217 -73 55 0 119 6 143 13 47 14 45 5 26 103 -5 23 -10 29 -22
23 -10 -3 -53 -9 -98 -12 -95 -5 -145 13 -170 60 -19 36 -11 49 29 47 18 -1
94 -1 170 0 l137 1 0 58 c0 158 -78 252 -220 267 -40 4 -70 0 -110 -14z m142
-122 c16 -9 48 -64 48 -84 0 -3 -47 -5 -105 -5 -58 0 -105 2 -105 5 0 19 31
75 47 84 24 14 89 14 115 0z"/>
<path d="M3749 2937 c-98 -28 -135 -78 -127 -172 6 -74 41 -110 149 -155 68
-28 99 -51 99 -74 0 -2 -7 -12 -16 -20 -20 -20 -91 -21 -164 -2 -30 8 -58 12
-61 8 -4 -4 -11 -31 -16 -59 l-10 -53 36 -11 c20 -6 72 -13 117 -16 143 -9
234 35 254 123 22 95 -26 161 -151 210 -83 33 -105 53 -90 83 19 34 63 38 167
16 29 -6 32 -4 37 23 3 16 9 41 12 55 6 21 2 26 -24 35 -52 18 -162 23 -212 9z"/>
<path d="M5550 2939 c-30 -5 -58 -13 -63 -18 -5 -5 -6 -32 -2 -59 l7 -50 99 5
c94 6 101 5 124 -17 14 -13 25 -35 25 -49 0 -26 0 -26 -89 -26 -74 -1 -96 -5
-137 -26 -62 -32 -89 -76 -88 -145 1 -71 27 -113 89 -144 44 -22 62 -25 155
-24 58 0 131 6 163 13 l57 12 0 172 c-1 185 -9 243 -42 290 -43 60 -172 88
-298 66z m188 -376 l3 -63 -66 0 c-89 0 -125 34 -94 91 14 28 45 39 104 36
l50 -2 3 -62z"/>
<path d="M1810 2933 c-14 -2 -32 -7 -40 -10 -8 -3 -23 -5 -33 -4 -44 6 -47
-13 -45 -276 0 -137 4 -228 8 -203 l7 45 1 -42 2 -43 60 0 61 0 -1 208 -2 207
51 5 c62 7 85 -1 108 -37 15 -23 19 -54 21 -205 l4 -178 70 0 70 0 -5 188 c-3
103 -10 203 -16 223 -13 42 -69 102 -88 95 -8 -3 -12 -2 -9 3 3 5 -2 12 -12
16 -19 8 -172 14 -212 8z m27 -19 c-3 -3 -12 -4 -19 -1 -8 3 -5 6 6 6 11 1 17
-2 13 -5z m156 -1 c-7 -2 -21 -2 -30 0 -10 3 -4 5 12 5 17 0 24 -2 18 -5z"/>
<path d="M4678 2928 l-48 -10 0 -265 0 -264 73 3 72 3 2 210 2 210 43 3 c30 1
50 -4 68 -17 25 -20 25 -21 30 -213 l5 -193 73 -3 73 -3 -3 206 -3 206 37 11
c42 12 91 -2 104 -30 5 -10 11 -100 14 -202 l5 -185 73 -3 72 -3 0 188 c-1
245 -10 282 -84 337 -42 32 -166 35 -233 6 l-51 -22 -41 21 c-33 17 -57 21
-138 20 -54 -1 -119 -6 -145 -11z"/>
<path d="M6043 2923 l-63 -14 0 -260 0 -260 73 3 72 3 3 207 2 207 36 7 c19 3
57 2 84 -3 l49 -10 11 49 c15 70 13 75 -21 82 -53 10 -181 5 -246 -11z"/>
<path d="M2240 2665 l0 -265 70 0 70 0 0 265 -1 265 -70 0 -69 0 0 -265z"/>
<path d="M4074 2917 c-9 -25 4 -362 16 -402 19 -63 74 -110 145 -125 61 -13
166 -8 258 11 l47 11 0 259 0 259 -75 0 -75 0 0 -210 0 -210 -54 0 c-101 0
-115 32 -116 273 l0 147 -70 0 c-50 0 -72 -4 -76 -13z"/>
</g>
</svg>
